<svg width="132" height="132" viewBox="0 0 32 32" fill="none" xmlns="http://www.w3.org/2000/svg">
<path d="M15.6364 31.9974C18.7644 32.0554 21.37 31.0459 22.8552 28.5801C23.9291 26.7982 23.5055 24.724 24.057 21.7106C24.6208 18.6254 25.9854 15.6432 25.0502 13.5241C24.6462 12.6081 24.1115 11.996 23.4582 11.4876C21.6592 10.0886 19.071 10.2315 17.261 10.9807C15.1306 11.8618 14.0153 10.8204 12.8586 10.605C11.8689 10.4215 11.0762 10.2018 9.5111 10.5963C8.85425 10.7617 7.36616 11.4376 6.50078 13.1158C5.30842 15.4271 6.5095 17.2663 7.36762 21.2675C8.16325 24.9785 7.9024 27.4168 9.23063 29.2038C10.5589 30.99 12.5083 31.9394 15.6364 31.9974Z" fill="#FF6338"/>
<path d="M18.3337 7.63703C18.3366 6.54264 17.4073 5.66655 16.2629 5.68396C16.0246 5.68758 15.8008 5.60273 15.6344 5.44608C15.468 5.2887 15.3764 5.07621 15.3772 4.84848C15.3779 4.62003 15.4702 4.40536 15.6373 4.24363C15.8051 4.08118 16.0289 3.99052 16.2672 3.9869C17.4116 3.96949 18.3453 3.05787 18.3482 1.95333C18.3511 0.858939 17.4218 -0.0171508 16.2774 0.000254932C14.9427 0.0198364 13.6747 0.54636 12.7091 1.48192C11.755 2.4037 11.2283 3.6221 11.2246 4.91013C11.2217 6.19815 11.7427 7.4006 12.6916 8.29555C13.6529 9.20282 14.9179 9.69163 16.2527 9.67133C17.3978 9.65392 18.3315 8.74157 18.3337 7.63703Z" fill="#00E984"/>
</svg>
